<svg width="49" height="31" viewBox="0 0 49 31" fill="none" xmlns="http://www.w3.org/2000/svg">
<g filter="url(#filter0_d_18_8)">
<path d="M1 9C1 6.79086 2.79086 5 5 5H43C45.2091 5 47 6.79086 47 9V26C47 28.2091 45.2091 30 43 30H5C2.79086 30 1 28.2091 1 26V9Z" fill="white" fill-opacity="0.55" shape-rendering="crispEdges"/>
<path d="M1 9C1 6.79086 2.79086 5 5 5H43C45.2091 5 47 6.79086 47 9V26C47 28.2091 45.2091 30 43 30H5C2.79086 30 1 28.2091 1 26V9Z" fill="black" fill-opacity="0.35" shape-rendering="crispEdges"/>
</g>
<g filter="url(#filter1_d_18_8)">
<path d="M3 10C3 8.34315 4.34315 7 6 7H42C43.6569 7 45 8.34315 45 10V25C45 26.6569 43.6569 28 42 28H6C4.34315 28 3 26.6569 3 25V10Z" fill="white" fill-opacity="0.55" shape-rendering="crispEdges"/>
<path d="M3 10C3 8.34315 4.34315 7 6 7H42C43.6569 7 45 8.34315 45 10V25C45 26.6569 43.6569 28 42 28H6C4.34315 28 3 26.6569 3 25V10Z" fill="black" fill-opacity="0.02" shape-rendering="crispEdges"/>
</g>
<path d="M32.2197 14.5771L29.6196 23H26.8584L30.7769 12.3359H32.5273L32.2197 14.5771ZM34.373 23L31.7656 14.5771L31.4287 12.3359H33.2012L37.1416 23H34.373ZM34.2705 19.0229V21.0078H28.7993V19.0229H34.2705Z" fill="#575757"/>
<path d="M8.27457 17.2218L11.5962 13.3224C11.7793 13.1074 12.0192 13 12.2591 13C12.4991 13 12.739 13.1074 12.9221 13.3224C13.2881 13.7522 13.2881 14.449 12.9221 14.8788L11.2008 16.8994L22.0625 16.8994C22.5803 16.8994 23 17.3922 23 18C23 18.6078 22.5803 19.1006 22.0625 19.1006L11.2008 19.1006L12.9221 21.1212C13.2881 21.551 13.2881 22.2478 12.9221 22.6776C12.5559 23.1075 11.9623 23.1075 11.5962 22.6776L8.27457 18.7782C7.90848 18.3484 7.90848 17.6516 8.27457 17.2218Z" fill="#575757"/>
<defs>
<filter id="filter0_d_18_8" x="0" y="4" width="48" height="27" filterUnits="userSpaceOnUse" color-interpolation-filters="sRGB">
<feFlood flood-opacity="0" result="BackgroundImageFix"/>
<feColorMatrix in="SourceAlpha" type="matrix" values="0 0 0 0 0 0 0 0 0 0 0 0 0 0 0 0 0 0 127 0" result="hardAlpha"/>
<feOffset/>
<feGaussianBlur stdDeviation="0.5"/>
<feComposite in2="hardAlpha" operator="out"/>
<feColorMatrix type="matrix" values="0 0 0 0 0 0 0 0 0 0 0 0 0 0 0 0 0 0 0.03 0"/>
<feBlend mode="normal" in2="BackgroundImageFix" result="effect1_dropShadow_18_8"/>
<feBlend mode="normal" in="SourceGraphic" in2="effect1_dropShadow_18_8" result="shape"/>
</filter>
<filter id="filter1_d_18_8" x="2" y="6" width="44" height="23" filterUnits="userSpaceOnUse" color-interpolation-filters="sRGB">
<feFlood flood-opacity="0" result="BackgroundImageFix"/>
<feColorMatrix in="SourceAlpha" type="matrix" values="0 0 0 0 0 0 0 0 0 0 0 0 0 0 0 0 0 0 127 0" result="hardAlpha"/>
<feOffset/>
<feGaussianBlur stdDeviation="0.5"/>
<feComposite in2="hardAlpha" operator="out"/>
<feColorMatrix type="matrix" values="0 0 0 0 0 0 0 0 0 0 0 0 0 0 0 0 0 0 0.03 0"/>
<feBlend mode="normal" in2="BackgroundImageFix" result="effect1_dropShadow_18_8"/>
<feBlend mode="normal" in="SourceGraphic" in2="effect1_dropShadow_18_8" result="shape"/>
</filter>
</defs>
</svg>
