<svg width="49" height="31" viewBox="0 0 49 31" fill="none" xmlns="http://www.w3.org/2000/svg">
<g filter="url(#filter0_d_12_95)">
<path d="M1 9C1 6.79086 2.79086 5 5 5H43C45.2091 5 47 6.79086 47 9V26C47 28.2091 45.2091 30 43 30H5C2.79086 30 1 28.2091 1 26V9Z" fill="white"/>
<path d="M1 9C1 6.79086 2.79086 5 5 5H43C45.2091 5 47 6.79086 47 9V26C47 28.2091 45.2091 30 43 30H5C2.79086 30 1 28.2091 1 26V9Z" fill="black" fill-opacity="0.35"/>
</g>
<g filter="url(#filter1_d_12_95)">
<path d="M3 10C3 8.34315 4.34315 7 6 7H42C43.6569 7 45 8.34315 45 10V25C45 26.6569 43.6569 28 42 28H6C4.34315 28 3 26.6569 3 25V10Z" fill="white"/>
<path d="M3 10C3 8.34315 4.34315 7 6 7H42C43.6569 7 45 8.34315 45 10V25C45 26.6569 43.6569 28 42 28H6C4.34315 28 3 26.6569 3 25V10Z" fill="black" fill-opacity="0.02"/>
</g>
<path d="M15.3828 23H12.8594L12.875 20.8906H15.3828C15.9036 20.8906 16.3438 20.7656 16.7031 20.5156C17.0677 20.2656 17.3438 19.8932 17.5312 19.3984C17.724 18.8984 17.8203 18.2839 17.8203 17.5547V17.0625C17.8203 16.5156 17.7656 16.0365 17.6562 15.625C17.5521 15.2083 17.3958 14.862 17.1875 14.5859C16.9792 14.3047 16.7188 14.0938 16.4062 13.9531C16.099 13.8125 15.7448 13.7422 15.3438 13.7422H12.8125V11.625H15.3438C16.1146 11.625 16.8203 11.7578 17.4609 12.0234C18.1068 12.2839 18.6641 12.6589 19.1328 13.1484C19.6068 13.6328 19.9714 14.2083 20.2266 14.875C20.487 15.5365 20.6172 16.2708 20.6172 17.0781V17.5547C20.6172 18.3568 20.487 19.0911 20.2266 19.7578C19.9714 20.4245 19.6094 21 19.1406 21.4844C18.6719 21.9688 18.1172 22.3438 17.4766 22.6094C16.8411 22.8698 16.1432 23 15.3828 23ZM14.4297 11.625V23H11.6875V11.625H14.4297Z" fill="#575757"/>
<path d="M39.7254 18.7782L36.4038 22.6776C36.2207 22.8926 35.9808 23 35.7409 23C35.5009 23 35.261 22.8926 35.0779 22.6776C34.7119 22.2478 34.7119 21.551 35.0779 21.1212L36.7992 19.1006H25.9375C25.4197 19.1006 25 18.6078 25 18C25 17.3922 25.4197 16.8994 25.9375 16.8994H36.7992L35.0779 14.8788C34.7119 14.449 34.7119 13.7522 35.0779 13.3224C35.4441 12.8925 36.0377 12.8925 36.4038 13.3224L39.7254 17.2218C40.0915 17.6516 40.0915 18.3484 39.7254 18.7782Z" fill="#575757"/>
<defs>
<filter id="filter0_d_12_95" x="0" y="4" width="48" height="27" filterUnits="userSpaceOnUse" color-interpolation-filters="sRGB">
<feFlood flood-opacity="0" result="BackgroundImageFix"/>
<feColorMatrix in="SourceAlpha" type="matrix" values="0 0 0 0 0 0 0 0 0 0 0 0 0 0 0 0 0 0 127 0" result="hardAlpha"/>
<feOffset/>
<feGaussianBlur stdDeviation="0.5"/>
<feComposite in2="hardAlpha" operator="out"/>
<feColorMatrix type="matrix" values="0 0 0 0 0 0 0 0 0 0 0 0 0 0 0 0 0 0 0.03 0"/>
<feBlend mode="normal" in2="BackgroundImageFix" result="effect1_dropShadow_12_95"/>
<feBlend mode="normal" in="SourceGraphic" in2="effect1_dropShadow_12_95" result="shape"/>
</filter>
<filter id="filter1_d_12_95" x="2" y="6" width="44" height="23" filterUnits="userSpaceOnUse" color-interpolation-filters="sRGB">
<feFlood flood-opacity="0" result="BackgroundImageFix"/>
<feColorMatrix in="SourceAlpha" type="matrix" values="0 0 0 0 0 0 0 0 0 0 0 0 0 0 0 0 0 0 127 0" result="hardAlpha"/>
<feOffset/>
<feGaussianBlur stdDeviation="0.5"/>
<feComposite in2="hardAlpha" operator="out"/>
<feColorMatrix type="matrix" values="0 0 0 0 0 0 0 0 0 0 0 0 0 0 0 0 0 0 0.03 0"/>
<feBlend mode="normal" in2="BackgroundImageFix" result="effect1_dropShadow_12_95"/>
<feBlend mode="normal" in="SourceGraphic" in2="effect1_dropShadow_12_95" result="shape"/>
</filter>
</defs>
</svg>
