<svg width="27" height="21" viewBox="0 0 27 21" fill="none" xmlns="http://www.w3.org/2000/svg">
<g filter="url(#filter0_d_7_9)">
<path d="M7 4C7 2.34315 8.34315 1 10 1H23C24.6569 1 26 2.34315 26 4V17C26 18.6569 24.6569 20 23 20H10C8.34315 20 7 18.6569 7 17V4Z" fill="white"/>
<path d="M7 4C7 2.34315 8.34315 1 10 1H23C24.6569 1 26 2.34315 26 4V17C26 18.6569 24.6569 20 23 20H10C8.34315 20 7 18.6569 7 17V4Z" fill="black" fill-opacity="0.35"/>
</g>
<g filter="url(#filter1_d_7_9)">
<path d="M9 5C9 3.89543 9.89543 3 11 3H22C23.1046 3 24 3.89543 24 5V16C24 17.1046 23.1046 18 22 18H11C9.89543 18 9 17.1046 9 16V5Z" fill="white"/>
<path d="M9 5C9 3.89543 9.89543 3 11 3H22C23.1046 3 24 3.89543 24 5V16C24 17.1046 23.1046 18 22 18H11C9.89543 18 9 17.1046 9 16V5Z" fill="black" fill-opacity="0.02"/>
</g>
<path d="M19.6641 13.418V15H15.1172V13.418H19.6641ZM15.8496 6.46875V15H13.793V6.46875H15.8496ZM19.0781 9.85547V11.3848H15.1172V9.85547H19.0781ZM19.6816 6.46875V8.05664H15.1172V6.46875H19.6816Z" fill="#575757"/>
<defs>
<filter id="filter0_d_7_9" x="6" y="0" width="21" height="21" filterUnits="userSpaceOnUse" color-interpolation-filters="sRGB">
<feFlood flood-opacity="0" result="BackgroundImageFix"/>
<feColorMatrix in="SourceAlpha" type="matrix" values="0 0 0 0 0 0 0 0 0 0 0 0 0 0 0 0 0 0 127 0" result="hardAlpha"/>
<feOffset/>
<feGaussianBlur stdDeviation="0.5"/>
<feComposite in2="hardAlpha" operator="out"/>
<feColorMatrix type="matrix" values="0 0 0 0 0 0 0 0 0 0 0 0 0 0 0 0 0 0 0.03 0"/>
<feBlend mode="normal" in2="BackgroundImageFix" result="effect1_dropShadow_7_9"/>
<feBlend mode="normal" in="SourceGraphic" in2="effect1_dropShadow_7_9" result="shape"/>
</filter>
<filter id="filter1_d_7_9" x="8" y="2" width="17" height="17" filterUnits="userSpaceOnUse" color-interpolation-filters="sRGB">
<feFlood flood-opacity="0" result="BackgroundImageFix"/>
<feColorMatrix in="SourceAlpha" type="matrix" values="0 0 0 0 0 0 0 0 0 0 0 0 0 0 0 0 0 0 127 0" result="hardAlpha"/>
<feOffset/>
<feGaussianBlur stdDeviation="0.5"/>
<feComposite in2="hardAlpha" operator="out"/>
<feColorMatrix type="matrix" values="0 0 0 0 0 0 0 0 0 0 0 0 0 0 0 0 0 0 0.03 0"/>
<feBlend mode="normal" in2="BackgroundImageFix" result="effect1_dropShadow_7_9"/>
<feBlend mode="normal" in="SourceGraphic" in2="effect1_dropShadow_7_9" result="shape"/>
</filter>
</defs>
</svg>
