<svg width="49" height="31" viewBox="0 0 49 31" fill="none" xmlns="http://www.w3.org/2000/svg">
<g filter="url(#filter0_d_18_2)">
<path d="M1 9C1 6.79086 2.79086 5 5 5H43C45.2091 5 47 6.79086 47 9V26C47 28.2091 45.2091 30 43 30H5C2.79086 30 1 28.2091 1 26V9Z" fill="white"/>
<path d="M1 9C1 6.79086 2.79086 5 5 5H43C45.2091 5 47 6.79086 47 9V26C47 28.2091 45.2091 30 43 30H5C2.79086 30 1 28.2091 1 26V9Z" fill="black" fill-opacity="0.55"/>
</g>
<g filter="url(#filter1_d_18_2)">
<path d="M3 10C3 8.34315 4.34315 7 6 7H42C43.6569 7 45 8.34315 45 10V25C45 26.6569 43.6569 28 42 28H6C4.34315 28 3 26.6569 3 25V10Z" fill="white" fill-opacity="0.55" shape-rendering="crispEdges"/>
</g>
<path d="M19.7725 19.8821C19.7725 19.6995 19.7456 19.5356 19.6919 19.3906C19.6382 19.2402 19.5388 19.1006 19.3938 18.9717C19.2488 18.8428 19.0393 18.7139 18.7654 18.585C18.4968 18.4507 18.1423 18.311 17.7019 18.166C17.1863 17.9941 16.6895 17.8008 16.2114 17.5859C15.7334 17.3657 15.3064 17.1106 14.9304 16.8206C14.5544 16.5251 14.2563 16.1814 14.0361 15.7893C13.8159 15.3918 13.7058 14.9299 13.7058 14.4036C13.7058 13.8987 13.8186 13.4448 14.0442 13.042C14.2698 12.6338 14.584 12.2874 14.9868 12.0027C15.395 11.7126 15.873 11.4924 16.4209 11.342C16.9688 11.1863 17.5676 11.1084 18.2175 11.1084C19.0769 11.1084 19.8342 11.2588 20.4895 11.5596C21.1501 11.855 21.6658 12.2766 22.0364 12.8245C22.4124 13.3669 22.6003 14.0088 22.6003 14.75H19.7886C19.7886 14.4546 19.7268 14.1941 19.6033 13.9685C19.4851 13.7429 19.3052 13.5657 19.0635 13.4368C18.8218 13.3079 18.5183 13.2434 18.1531 13.2434C17.7986 13.2434 17.5005 13.2971 17.2588 13.4045C17.0171 13.512 16.8345 13.657 16.7109 13.8396C16.5874 14.0168 16.5256 14.2129 16.5256 14.4277C16.5256 14.605 16.574 14.7661 16.6707 14.9111C16.7727 15.0508 16.915 15.1824 17.0977 15.3059C17.2856 15.4294 17.5112 15.5476 17.7744 15.6604C18.043 15.7732 18.3438 15.8833 18.6768 15.9907C19.2998 16.1895 19.853 16.4124 20.3364 16.6594C20.8252 16.9011 21.2361 17.1777 21.5691 17.4893C21.9075 17.7954 22.1626 18.1445 22.3345 18.5366C22.5117 18.9287 22.6003 19.3718 22.6003 19.866C22.6003 20.3923 22.4983 20.8596 22.2942 21.2678C22.0901 21.676 21.7974 22.0225 21.416 22.3071C21.0347 22.5864 20.5781 22.7986 20.0464 22.9436C19.5146 23.0886 18.9211 23.1611 18.2659 23.1611C17.6643 23.1611 17.0708 23.0859 16.4854 22.9355C15.9053 22.7798 15.3789 22.5435 14.9062 22.2266C14.4336 21.9043 14.0549 21.4934 13.7703 20.9939C13.491 20.489 13.3513 19.8901 13.3513 19.1973H16.1873C16.1873 19.541 16.2329 19.8311 16.3242 20.0674C16.4155 20.3037 16.5498 20.4944 16.7271 20.6394C16.9043 20.7791 17.1218 20.8811 17.3796 20.9456C17.6375 21.0046 17.9329 21.0342 18.2659 21.0342C18.6257 21.0342 18.9158 20.9832 19.136 20.8811C19.3562 20.7737 19.5173 20.634 19.6194 20.4622C19.7214 20.2849 19.7725 20.0916 19.7725 19.8821Z" fill="#575757"/>
<path d="M32.2218 24.7254L28.3224 21.4038C28.1074 21.2207 28 20.9808 28 20.7409C28 20.5009 28.1074 20.261 28.3224 20.0779C28.7522 19.7119 29.449 19.7119 29.8788 20.0779L31.8994 21.7992L31.8994 10.9375C31.8994 10.4197 32.3922 10 33 10C33.6078 10 34.1006 10.4197 34.1006 10.9375L34.1006 21.7992L36.1212 20.0779C36.551 19.7119 37.2478 19.7119 37.6776 20.0779C38.1075 20.4441 38.1075 21.0377 37.6776 21.4038L33.7782 24.7254C33.3484 25.0915 32.6516 25.0915 32.2218 24.7254Z" fill="#575757"/>
<defs>
<filter id="filter0_d_18_2" x="0" y="4" width="48" height="27" filterUnits="userSpaceOnUse" color-interpolation-filters="sRGB">
<feFlood flood-opacity="0" result="BackgroundImageFix"/>
<feColorMatrix in="SourceAlpha" type="matrix" values="0 0 0 0 0 0 0 0 0 0 0 0 0 0 0 0 0 0 127 0" result="hardAlpha"/>
<feOffset/>
<feGaussianBlur stdDeviation="0.5"/>
<feComposite in2="hardAlpha" operator="out"/>
<feColorMatrix type="matrix" values="0 0 0 0 0 0 0 0 0 0 0 0 0 0 0 0 0 0 0.03 0"/>
<feBlend mode="normal" in2="BackgroundImageFix" result="effect1_dropShadow_18_2"/>
<feBlend mode="normal" in="SourceGraphic" in2="effect1_dropShadow_18_2" result="shape"/>
</filter>
<filter id="filter1_d_18_2" x="2" y="6" width="44" height="23" filterUnits="userSpaceOnUse" color-interpolation-filters="sRGB">
<feFlood flood-opacity="0" result="BackgroundImageFix"/>
<feColorMatrix in="SourceAlpha" type="matrix" values="0 0 0 0 0 0 0 0 0 0 0 0 0 0 0 0 0 0 127 0" result="hardAlpha"/>
<feOffset/>
<feGaussianBlur stdDeviation="0.5"/>
<feComposite in2="hardAlpha" operator="out"/>
<feColorMatrix type="matrix" values="0 0 0 0 0 0 0 0 0 0 0 0 0 0 0 0 0 0 0.03 0"/>
<feBlend mode="normal" in2="BackgroundImageFix" result="effect1_dropShadow_18_2"/>
<feBlend mode="normal" in="SourceGraphic" in2="effect1_dropShadow_18_2" result="shape"/>
</filter>
</defs>
</svg>
